PathFileType	3	(X/Y/Z)	C:\Users\koon_\Desktop\
DataRate	CameraRate	NumFrames	NumMarkers	Units	OrigDataRate	OrigDataStartFrame	OrigNumFrames
100.0	100.0	4	27	mm	100.0	3500	3999	
Frame#	Time	get:LFHD			get:RFHD			get:LBHD			get:RBHD			get:C7			get:T10			get:CLAV			get:STRN			get:RBAK			get:LSHO			get:LUPA			get:LELB			get:LFRA			get:LWRA			get:LWRB			get:LFIN			get:RSHO			get:RUPA			get:RELB			get:RFRA			get:RWRA			get:RWRB			get:RFIN			get:LASI			get:RASI			get:LPSI			get:RPSI			
		X1	Y1	Z1	X2	Y2	Z2	X3	Y3	Z3	X4	Y4	Z4	X5	Y5	Z5	X6	Y6	Z6	X7	Y7	Z7	X8	Y8	Z8	X9	Y9	Z9	X10	Y10	Z10	X11	Y11	Z11	X12	Y12	Z12	X13	Y13	Z13	X14	Y14	Z14	X15	Y15	Z15	X16	Y16	Z16	X17	Y17	Z17	X18	Y18	Z18	X19	Y19	Z19	X20	Y20	Z20	X21	Y21	Z21	X22	Y22	Z22	X23	Y23	Z23	X24	Y24	Z24	X25	Y25	Z25	X26	Y26	Z26	X27	Y27	Z27	
3500	34.99	230.82178	1493.6169	-164.683	174.64766	1486.8778	-18.722944	117.65549	1533.0313	-200.77242	61.330601	1543.0758	-84.799339	19.407825	1380.1348	-159.70645	-124.97852	1167.7186	-211.72467	139.83749	1218.5303	-107.99557	83.566498	1050.8148	-105.78535	-51.607937	1335.2944	-73.605499	146.94957	1324.1151	-258.91119	213.12408	1227.2213	-329.8013	281.19891	1064.48	-366.53854	406.30402	1045.6909	-346.61963	489.44662	996.55139	-329.24057	464.151	951.92737	-374.03442	553.60834	940.16235	-383.3873	72.002731	1342.5699	-5.7741742	169.29504	1209.9075	85.918617	209.5457	1105.5131	116.57671	314.92349	1112.9093	87.923279	446.97174	1027.7136	69.132774	419.23172	989.60461	120.20982	506.09094	1000.2822	120.8267	83.909111	935.16956	-203.70595	-125.49324	911.29218	-21.582342	-113.13412	973.61456	-292.19098	-187.22958	962.14026	-221.08995
3501	35	233.8076	1491.4691	-164.52109	177.70987	1484.9326	-18.500875	120.77916	1531.5109	-200.43109	64.594444	1541.7356	-84.412415	22.192415	1379.3197	-159.26453	-124.01126	1168.3293	-211.09598	142.25081	1216.9387	-107.99747	83.965408	1049.6511	-105.66311	-48.776028	1335.1998	-72.691589	149.14418	1322.8127	-257.81488	216.73711	1227.3385	-328.42776	285.61356	1064.7349	-365.33521	410.22263	1042.9691	-346.49615	492.18341	991.6875	-330.23221	465.07693	947.13251	-373.96426	553.89124	932.51819	-384.43262	75.437973	1341.2764	-6.006525	173.67848	1209.6228	84.817665	214.26024	1105.3807	115.03789	319.66995	1112.1401	86.557999	450.91116	1024.9766	68.354012	422.57864	987.53693	119.56384	509.83667	996.80603	120.01795	83.54483	934.88416	-203.63087	-125.77005	911.20459	-21.364985	-113.02868	973.65771	-291.34186	-187.49406	962.27783	-220.52469
3502	35.01	236.77663	1489.3336	-164.36234	180.77748	1482.9181	-18.294329	123.90011	1529.9392	-200.19702	67.882454	1540.3672	-84.173203	24.955313	1378.4767	-158.75269	-123.08415	1168.9603	-210.66867	143.82674	1214.8418	-107.77504	84.315971	1048.4761	-105.45381	-45.858227	1334.7744	-71.90847	151.33612	1321.4421	-256.72299	220.0918	1227.3525	-327.10464	289.91409	1065.01	-364.16949	413.97284	1040.25	-346.26141	494.69138	986.84961	-331.15085	465.76526	942.51947	-373.82785	554.09589	925.35986	-385.62781	78.836678	1340.0507	-6.1811676	177.85066	1209.2887	83.665863	218.85878	1105.1753	113.57978	324.32831	1111.3293	85.177017	454.49982	1022.1385	67.498955	425.66537	985.43671	119.02327	513.11719	993.42413	119.40507	83.187805	934.67456	-203.44228	-126.08183	911.20062	-21.282507	-113.34131	973.93311	-291.0498	-187.83331	962.62518	-220.28062
3503	35.02	239.79663	1487.1586	-164.21501	183.79103	1480.8906	-18.138226	127.09227	1528.278	-199.95375	71.144844	1538.8894	-83.855721	27.772135	1377.5479	-158.3028	-122.14973	1169.4937	-209.91843	146.04604	1213.0647	-107.63374	84.681236	1047.2115	-105.34908	-43.012062	1334.4487	-71.158043	153.5312	1319.9766	-255.61559	223.42336	1227.286	-325.52924	294.02899	1065.2223	-362.91068	417.43906	1037.6254	-345.92374	496.86981	982.03571	-331.92795	466.12415	938.10956	-373.69748	553.85309	918.03961	-386.233	81.994812	1338.7745	-6.4955349	182.04362	1209.0237	82.699646	223.19299	1104.9574	112.26381	328.67648	1110.361	83.778381	457.83417	1019.3963	66.70092	428.61731	983.42999	118.49334	516.41394	990.54089	118.53609	82.804367	934.49097	-203.3013	-126.37141	911.19464	-21.158152	-113.70798	974.31232	-290.90793	-188.15651	962.92883	-220.02242
